<?xml version="1.0" encoding="utf-8"?>
<!-- Generator: Adobe Illustrator 24.3.0, SVG Export Plug-In . SVG Version: 6.00 Build 0)  -->
<svg version="1.1" id="Layer_1" xmlns="http://www.w3.org/2000/svg" xmlns:xlink="http://www.w3.org/1999/xlink" x="0px" y="0px"
	 viewBox="0 0 345.5 249.6" style="enable-background:new 0 0 345.5 249.6;" xml:space="preserve">
<style type="text/css">
	.st0{fill:#345f6a;}
	.st1{opacity:0.49;}
	.st2{fill:#FFFFFF;}
	.st3{fill:#FFFFFF;stroke:#474246;stroke-width:4;stroke-miterlimit:10;}
	.st4{fill:#FFFFFF;stroke:#474246;stroke-width:3;stroke-miterlimit:10;}
	.st5{fill:#474246;}
</style>
<g id="Ink">
	<path class="st0" d="M133,213.6c-7.7-7.2-15.2-14.5-22.5-22c-7.3-7.5-14.5-15.2-21.4-23.2c-1.7-2-3.4-4-5-6.1s-3.3-4.1-4.8-6.3
		l-2.4-3.2l-2.2-3.3c-1.5-2.2-2.8-4.5-4.2-6.8c-5-9.2-10.4-18.2-16.3-26.8c-2.9-4.3-6.1-8.5-9.5-12.4c-1.6-2-3.5-3.8-5.5-5.4
		c-0.5-0.4-1-0.7-1.5-0.9c-0.2-0.1-0.4-0.2-0.6-0.2c-0.1,0-0.2,0-0.2,0c-0.1,0-0.1,0-0.2,0.1c-1,0.6-1.8,1.4-2.3,2.4
		c-1.1,2.2-1.7,4.7-1.7,7.2c-0.1,2.6,0,5.1,0.2,7.7c0.3,2.6,0.7,5.1,1.2,7.7s1,5.1,1.5,7.7c2.2,10.3,4.7,20.4,7.1,30.7l1.7,7.7
		c0.6,2.5,1.2,5.1,1.8,7.6c1.3,5.1,2.6,10.2,4,15.2c2.8,10.1,5.6,20.3,8.6,30.3c0.8,2.5,1.7,4.9,2.6,7.4l2.7,7.4
		c0.9,2.5,1.8,5,2.5,7.5c0.2,0.6,0.4,1.3,0.5,2c0.2,0.7,0.3,1.5,0.3,2.2c0,0.3-0.1,0.6-0.3,0.9c-0.2,0.3-0.4,0.5-0.7,0.7
		c-0.5,0.3-1,0.4-1.6,0.3c-0.8-0.1-1.5-0.4-2.2-0.8c-2.3-1.5-4.4-3.4-6-5.7c-1.6-2.1-3.1-4.4-4.3-6.8c-2.5-4.6-5.2-9.1-7.8-13.6
		l-15.9-27.3c-1.3-2.3-2.6-4.6-3.9-6.9c-0.6-1.2-1.3-2.3-1.9-3.5s-1.2-2.3-1.8-3.4c-2.6-4.5-5.4-9-8.4-13.2c-1.5-2.1-3.1-4.1-4.8-6
		l-0.6-0.7c-0.2-0.2-0.4-0.4-0.7-0.6s-0.2-0.1-0.3-0.2l-0.1-0.1H6.2H6.1c-0.3-0.1-0.7-0.3-1-0.5c-0.5-0.3-1.1-0.6-1.6-0.8
		c-0.1-0.1-0.3-0.2-0.5-0.2c0,0-0.1,0-0.2,0.2c-0.3,0.4-0.4,0.9-0.5,1.4c-0.1,0.6-0.2,1.2-0.2,1.8c-0.1,1.3-0.1,2.6,0,3.8
		c0.1,2.6,0.2,5.2,0.5,7.8c0.8,10.4,2.1,20.9,3.5,31.3S9,226.7,10.5,237c-2-10.3-3.8-20.7-5.5-31c-1.7-10.4-3.3-20.8-4.4-31.2
		c-0.2-2.6-0.4-5.3-0.5-7.9c0-1.3,0-2.7,0.1-4c0-0.7,0.1-1.4,0.3-2.1c0.1-0.8,0.4-1.6,0.9-2.2c0.3-0.5,0.8-0.8,1.4-0.9
		c0.5-0.1,1,0,1.5,0.2c0.7,0.3,1.3,0.6,1.9,0.9c0.2,0.1,0.5,0.3,0.8,0.4c0.4,0.2,0.8,0.4,1.1,0.6c0.3,0.2,0.6,0.5,0.9,0.7l0.7,0.7
		c1.8,2,3.5,4.1,5,6.3c3.1,4.3,5.9,8.8,8.5,13.4c0.6,1.1,1.3,2.3,1.9,3.5s1.1,2.2,1.7,3.4c1.3,2.3,2.6,4.6,3.9,6.8l15.9,27.2
		c2.7,4.5,5.3,9.1,7.8,13.7c1.2,2.3,2.6,4.4,4.2,6.5c1.5,2,3.3,3.8,5.4,5.1c0.4,0.3,0.9,0.5,1.4,0.6c0.1,0,0.2,0,0.3,0l0,0
		c0,0,0,0.1,0,0c0-0.6-0.1-1.1-0.2-1.6c-0.1-0.6-0.3-1.2-0.5-1.9c-0.7-2.5-1.6-5-2.5-7.4l-2.7-7.4c-0.9-2.5-1.9-4.9-2.6-7.5
		c-3.1-10.1-5.9-20.2-8.7-30.3c-1.4-5.1-2.7-10.2-4-15.3c-0.7-2.5-1.3-5.1-1.8-7.7l-1.7-7.7c-2.4-10.2-4.9-20.4-7.1-30.7
		c-0.5-2.6-1.1-5.1-1.5-7.8s-0.9-5.3-1.2-7.9c-0.3-2.7-0.4-5.3-0.2-8c0.1-2.8,0.8-5.5,2-8c0.7-1.3,1.8-2.4,3.1-3.2
		c0.2-0.1,0.5-0.2,0.7-0.3c0.3,0,0.5,0,0.8,0c0.4,0,0.9,0.2,1.2,0.4c0.7,0.3,1.3,0.7,1.9,1.1c2.1,1.7,4,3.6,5.8,5.7
		c3.4,4,6.6,8.2,9.6,12.6c5.9,8.7,11.4,17.7,16.4,27c5.1,9,11.7,17.3,18.3,25.3C103.9,183.3,118.3,198.6,133,213.6z"/>
</g>
<g id="Nib">
	<path d="M93.5,137.1c0,0-7,2-9,5s-3,9-4,13s-2,7-5,9s-4-1-6,1s-8,13-13,17s-12,9-18,11v6.9c0,0-17,16.1-26,18.1c0,0-1,17-2,19
		c0,0,14-5,18-2c0,0,13-24,20-25l6,1c1.1-6.7,4.6-12.8,10-17c9-7,9-8,19-13c0,0-1-9.8,4.5-10.4s9.5,1.4,16.5-1.6s5-14,5-14
		L93.5,137.1z"/>
	<g class="st1">
		<path class="st2" d="M31.5,225.1c-0.2,0.7-0.3,1.4-0.5,2c-0.1,0.3-0.1,0.7-0.4,0.9l-0.5,0.8c-0.3,0.5-0.6,1-0.9,1.5
			c-0.1,0.2-0.2,0.5-0.3,0.7c0,0.1,0,0.1,0,0.2c0,0,0-0.1-0.2-0.3l-0.8,1.7c-2.4,0-4.7,0.1-7.1,0.3c-1.2,0.1-2.3,0.2-3.5,0.4
			c-1.1,0.2-2.4-0.3-3.4,0.3c0.1-0.3,0.3-0.6,0.5-0.9c0.2-0.2,0.5-0.4,0.8-0.6c0.5-0.4,1.1-0.7,1.8-0.8c1.2-0.2,2.4-0.3,3.7-0.4
			c2.4-0.2,4.8-0.3,7.3-0.3l-0.7,1.7c-0.3-0.3-0.4-0.7-0.4-1.2c0-0.2,0-0.5,0.1-0.7c0.1-0.4,0.3-0.7,0.4-1c0.3-0.6,0.6-1.2,1-1.8
			l0.5-0.8c0.1-0.3,0.4-0.5,0.7-0.7C30.3,225.7,30.9,225.3,31.5,225.1z"/>
	</g>
	<g class="st1">
		<path class="st2" d="M56.5,200.1c0.1,0.4,0.1,0.8,0.1,1.2v0.6c0,0.2-0.2,0.3-0.2,0.5l-1,1.8l-2,3.5l-0.4,0.6l-0.8-0.2
			c-0.8-0.2-1.6-0.3-2.3-0.4c-0.4-0.1-0.8,0.1-1.1-0.2c-0.4-0.2-0.8-0.4-1.3-0.4c0.2-0.5,0.6-0.9,1.1-1.2c0.4-0.3,0.9-0.3,1.4-0.2
			c0.9,0.1,1.8,0.2,2.7,0.4l-1.1,0.5l2-3.5l1-1.8c0.1-0.1,0.1-0.3,0.3-0.4l0.5-0.3C55.8,200.4,56.2,200.2,56.5,200.1z"/>
	</g>
	<g class="st1">
		<path class="st2" d="M83.1,173.6c0,0.5-0.1,0.9-0.1,1.4s-0.1,0.9-0.2,1.4s0,1-0.3,1.3c-0.3,0.4-0.8,0.8-1.3,0.9l-0.2-0.1
			c-0.3-0.5-0.4-1-0.3-1.6c0-0.5,0.4-0.8,0.7-1.2s0.5-0.8,0.8-1.1s0.6-0.7,0.9-1.1L83.1,173.6z"/>
	</g>
	<g class="st1">
		<path class="st2" d="M103.5,166.1c-0.6,0.7-1.3,1.3-2.2,1.7c-0.8,0.4-1.7,0.7-2.6,0.8c-0.9,0.2-1.9,0.1-2.8-0.1
			c-0.9-0.2-1.8-0.7-2.4-1.4c1,0,1.8,0,2.6-0.1s1.6-0.2,2.4-0.3C100.1,166.3,101.8,166.1,103.5,166.1z"/>
	</g>
</g>
<path class="st3" d="M88,161.6c0,0,11-14,11.2-60.8c0.2-47.3,57.2-88.2,103.5-93.2s86.5,6.4,99.4,10.7s25.4,11.8,33.4,9.8
	c-8.9,7.6-15.7,17.4-19.5,28.5c-6,18-29.1,30.8-59,29.9c0,0-53,28.1-66,34.1s-4-6-23,7c-19.3,13.2-12.5,16.5-28,23
	S88,161.6,88,161.6z"/>
<g id="T-feather_1_">
	<path id="T-Letter" class="st3" d="M339,28.6c0,0-48-13-70.5-20.5c0,0-10,26,5,48c0,0,2-10,10-10c0,0,4.5,25.5,0.5,37.5
		c0,0,21-8,27-19c0,0-17,3-8.6-19.5c0,0,7.1,1,18.1,2C320.5,47.1,331,31.6,339,28.6z"/>
</g>
<g id="P-feather_1_">
	<path id="P-Letter" class="st4" d="M293,25.6c-1-18-9-21-48.5-20.5c0,0-9,57,8,84c4.7,0.3,9.3,0.3,14,0c5.6-0.4,12.1-2.6,16.5-3.5
		c0,0-17.5-17.5-15.5-38.5C267.5,47.1,293.9,41.6,293,25.6z M266.5,28.4V16.7c0,0,7.1,4.8,8.8,5.8c0,0,0,0,0.1,0
		c0.4,0.3,0.3,0.2-0.1,0C273,21.2,266.5,28.4,266.5,28.4z"/>
</g>
<g id="I-feather_1_">
	<path id="I-Letter" class="st3" d="M254,2.6c0,0-28.2-3-38.1,5c0,0,12.1,18,4.1,46c0,0-1,38,16,41c7.8-1,15.5-2.6,23-5
		c0,0-11-1-14-26S237,7.6,254,2.6z"/>
</g>
<g id="R-feather_1_">
	<path id="R-Letter" class="st4" d="M249,92.6c-6.1,2-12-11-21.5-15.5c-9-3-22-6-26-12c0,0,60.5-52.5,9.5-57.5c0,0-34,6-49,16
		c0,0,10.5,14.5,10.5,55.5v44c0,0,23.5-15.5,32.5-14.5c0,0-16-27-12-27s24,18,22,27C215,108.6,235,99.6,249,92.6z M188.5,54.1l-1-24
		c0,0,16.2,11.5,14,10S188.5,54.1,188.5,54.1z"/>
</g>
<g id="C-feather_1_">
	<path id="C-Letter" class="st3" d="M183,10.6c0,0-53,13-55,55c-1.4,29,14.8,52.8,36,59c17,5,55-16,55-16s-39-3-47-18
		C162.3,72.4,154,33.6,183,10.6z"/>
</g>
<g id="S-feather">
	<path id="S-Letter" class="st3" d="M138.5,30.1c-42,39-43,70-36,79c1.8,2.3,5.4,3.9,13,7c5,2,8.7,1.9,10,8
		c2.5,11.9-16.3,33.2-15.5,34.5c2.6,4.1,71.9-10.3,59.5-50.5c-8-26-26-16-33-27C126.6,65.4,134.3,43.9,138.5,30.1z"/>
</g>
<g id="bone">
	<path class="st5" d="M94.2,160.3c0.8-2.1,1.7-4.2,2.7-6.2c1-2,2-3.9,3.1-5.9c2.2-3.8,4.6-7.5,7.1-11.1c5.1-7.1,10.7-13.8,16.8-20.1
		c6.1-6.2,12.5-12.1,19.4-17.5c6.8-5.4,13.8-10.5,21.2-15.1l2.7-1.8l2.8-1.7l5.6-3.3l5.7-3.1l2.9-1.6l2.9-1.5l5.8-2.9l5.9-2.8
		c3.9-1.9,7.9-3.5,11.9-5.2c15.9-6.6,32.3-12.2,49-16.6C243,48.9,226.8,54.8,211,61.8c-3.9,1.8-7.9,3.5-11.7,5.5l-5.8,2.9l-5.7,3.1
		l-2.8,1.5l-2.8,1.6l-5.6,3.2l-5.5,3.4l-2.7,1.7l-2.7,1.8c-7.1,4.7-14,9.9-20.6,15.4c-6.6,5.5-12.8,11.4-18.6,17.6
		c-5.8,6.3-11.1,12.9-15.9,20c-2.4,3.5-4.6,7.2-6.6,10.9c-1,1.9-2,3.7-2.8,5.6c-0.9,1.9-1.6,3.8-2.3,5.7L94.2,160.3z"/>
	<path class="st5" d="M123.1,117.3c0.9-2.4,1.6-4.8,2.3-7.3c0.6-2.5,1.2-5,1.6-7.5c0.4-2.5,0.7-5.1,0.8-7.7c0.1-2.6,0-5.2-0.3-7.8
		c0.7,2.5,1.2,5.1,1.5,7.8c0.3,2.6,0.4,5.3,0.4,7.9c0,2.7-0.1,5.3-0.4,8c-0.3,2.7-0.6,5.3-1.1,8L123.1,117.3z"/>
	<path class="st5" d="M141.1,101.5c1.2-2.7,2.2-5.5,3.2-8.3s1.9-5.6,2.6-8.5s1.4-5.8,1.9-8.7c0.5-3,0.7-5.9,0.7-8.9
		c0.3,3,0.3,6,0.1,9c-0.2,3-0.6,6-1.2,9s-1.2,5.9-1.9,8.9s-1.6,5.8-2.6,8.7L141.1,101.5z"/>
	<path class="st5" d="M168.6,123.7c0,0-0.1-0.2-0.2-0.3s-0.2-0.2-0.3-0.4s-0.5-0.5-0.8-0.7c-0.6-0.5-1.2-0.9-1.8-1.4
		c-1.3-0.8-2.8-1.5-4.3-2.1c-1.6-0.5-3.1-1-4.8-1.3c-0.8-0.1-1.6-0.2-2.5-0.4l-2.5-0.2l2.5-0.4c0.9-0.1,1.7-0.2,2.6-0.3
		c1.7-0.1,3.5-0.1,5.2,0.1c1.8,0.2,3.6,0.5,5.3,1.1c0.9,0.3,1.8,0.7,2.6,1.1c0.4,0.2,0.9,0.5,1.3,0.7c0.2,0.1,0.4,0.3,0.6,0.4
		c0.3,0.2,0.5,0.4,0.7,0.6L168.6,123.7z"/>
	<path class="st5" d="M205.3,117.2c-1.4-1.1-3-2.2-4.6-3.2s-3.2-2-4.9-3s-3.3-1.8-5-2.7s-3.5-1.6-5.2-2.3c1.9,0.3,3.8,0.7,5.7,1.1
		s3.8,1,5.6,1.6s3.7,1.2,5.5,1.9s3.6,1.4,5.5,2.3L205.3,117.2z"/>
	<path class="st5" d="M291.2,82.2c-0.4-0.3-1-0.6-1.5-0.9s-1.1-0.6-1.7-0.9c-1.2-0.6-2.3-1.1-3.5-1.6s-2.4-0.9-3.7-1.4l-3.8-1.3
		c-5.1-1.5-10.3-2.8-15.5-3.6l-4-0.6l-4-0.5l-2-0.3l-2-0.2l-4-0.3c-2.7-0.2-5.4-0.3-8-0.4l-8.1-0.1l8.1-0.5c2.7-0.1,5.4-0.2,8.1-0.2
		h4h2l2,0.1l4.1,0.2l4,0.3c5.5,0.5,10.9,1.3,16.3,2.5c1.3,0.3,2.7,0.6,4,1s2.7,0.7,4,1.2s2.6,0.9,3.9,1.4c0.6,0.3,1.3,0.5,2,0.8
		s1.3,0.6,2,1L291.2,82.2z"/>
	<path class="st5" d="M296.1,78.1c-0.4-0.3-1-0.6-1.5-1s-1.1-0.6-1.6-1c-1.1-0.6-2.3-1.2-3.5-1.8c-2.3-1.1-4.8-2.1-7.2-3
		c-5-1.8-10-3.3-15.2-4.4l-3.9-0.8l-3.9-0.7c-2.6-0.5-5.3-0.8-7.9-1.1s-5.3-0.5-8-0.8l-8-0.5l8-0.1c2.7,0.1,5.4,0.1,8,0.2
		s5.4,0.2,8,0.6l4,0.4l4,0.5c5.4,0.8,10.7,1.9,15.9,3.3c2.6,0.8,5.2,1.6,7.8,2.6c1.3,0.5,2.6,1,3.8,1.6c0.6,0.3,1.3,0.6,1.9,0.9
		s1.2,0.6,2,1.1L296.1,78.1z"/>
	<path class="st5" d="M318,22.3c-0.1,0.4-0.2,0.9-0.4,1.3c-0.1,0.4-0.3,0.7-0.4,1c-0.3,0.6-0.6,1.2-1,1.8c-0.7,1.1-1.6,2.1-2.5,3
		c-1.8,1.7-3.8,3.3-5.9,4.5c-1,0.7-2.1,1.1-3.2,1.7s-2.2,0.9-3.3,1.4s-2.2,0.8-3.4,1.2l-3.4,1l3.2-1.5c1-0.5,2-1.1,3.1-1.7
		s2-1.2,2.9-1.9s1.9-1.3,2.7-2.1c1.7-1.4,3.2-3,4.5-4.8c0.6-0.9,1.1-1.8,1.5-2.7c0.2-0.4,0.4-0.9,0.5-1.4c0-0.2,0.1-0.4,0.1-0.7
		s0.1-0.5,0-0.4L318,22.3z"/>
	<path class="st5" d="M272.5,12.1l-0.8,1.7c-0.4,0.5-0.7,0.9-1.1,1.4c-0.7,1-1.4,2-2,3s-1.3,2-1.9,3.1l-0.9,1.6
		c-0.4,0.4-0.9,0.9-1.3,1.3c0.1-0.6,0.3-1.2,0.5-1.8l0.9-1.6c0.6-1,1.3-2.1,1.9-3.1s1.3-2,2-3c0.4-0.5,0.7-1,1.1-1.5
		C271.5,12.7,272,12.4,272.5,12.1z"/>
	<path class="st5" d="M235.5,17.1c-0.7,1.2-1.4,2.3-2.1,3.4c-0.9,0.9-1.9,1.8-2.8,2.8c-1.8,1.8-3.6,3.7-5.4,5.7s-3.4,3.9-5,5.9
		c-0.8,1-1.6,2-2.3,3.1l-1.5,1.3c-0.5,0.5-1,0.9-1.5,1.4c0.2-0.6,0.4-1.3,0.6-2s0.5-1.3,0.7-1.9c0.8-1.1,1.6-2.1,2.4-3.2
		c1.6-2.1,3.4-4,5.1-6s3.6-3.8,5.4-5.7l2.8-2.8C233.2,18.3,234.3,17.6,235.5,17.1z"/>
	<path class="st5" d="M213.5,6.1c0,1.5-0.1,3-0.4,4.6c-0.6,1.4-1.1,2.8-1.8,4.1c-1.3,2.7-2.8,5.3-4.5,7.8c-1.7,2.5-3.6,4.8-5.6,6.9
		c-1,1.1-2.1,2.1-3.2,3.1c-1.3,0.7-2.7,1.4-4.1,2c0.9-1.3,1.9-2.3,2.7-3.5c1.1-1,2.1-1.9,3.1-3c2-2.1,3.8-4.3,5.4-6.7
		c1.6-2.4,3.1-4.9,4.3-7.5c0.6-1.3,1.2-2.6,1.7-4C212,8.7,212.8,7.4,213.5,6.1z"/>
	<path class="st5" d="M309.9,19.9c-0.8,1.4-1.7,2.8-2.6,4.1c-0.9,1.3-1.9,2.5-3,3.7c-2,2.3-4.3,4.4-6.8,6.3c1.8-2.4,3.4-5,4.7-7.7
		c0.7-1.3,1.2-2.7,1.7-4.1c0.5-1.3,0.9-2.7,1.3-4.1L309.9,19.9z"/>
	<path class="st5" d="M167.8,128.8c0-0.1-0.1-0.3-0.2-0.4s-0.2-0.3-0.4-0.5c-0.3-0.3-0.6-0.6-0.9-1c-0.6-0.6-1.3-1.2-2-1.8
		c-0.7-0.6-1.5-1.1-2.3-1.6s-1.6-1-2.5-1.5c1,0.1,1.9,0.1,2.9,0.3s2,0.3,2.9,0.6c1,0.2,2,0.5,2.9,0.9c0.5,0.2,1,0.4,1.5,0.6
		c0.3,0.1,0.5,0.2,0.7,0.4c0.3,0.1,0.6,0.3,0.8,0.5L167.8,128.8z"/>
	<path class="st5" d="M146.3,97.2c1.5-1.9,2.8-3.8,4-5.8c1.2-2.1,2.3-4.2,3.3-6.4c1-2.2,1.8-4.5,2.5-6.8c0.7-2.3,1.2-4.7,1.5-7.1
		c-0.1,2.4-0.3,4.9-0.7,7.3c-0.4,2.4-1,4.8-1.8,7.1c-0.8,2.4-1.7,4.7-2.7,6.9c-1,2.3-2.2,4.5-3.6,6.6L146.3,97.2z"/>
	<path class="st5" d="M101.9,146.6c2.8-0.4,5.4-0.8,8.2-1.1s5.4-0.6,8.1-0.8s5.4-0.3,8.2-0.3c2.7,0,5.4,0.2,8.1,0.6
		c-2.7,0-5.4,0.3-8,0.7c-2.6,0.4-5.3,0.9-7.9,1.5s-5.2,1.3-7.8,2s-5.2,1.5-7.7,2.3L101.9,146.6z"/>
</g>
</svg>
